<svg preserveAspectRatio="none" width="100%" height="100%" overflow="visible" style="display: block;" viewBox="0 0 119.604 119.273" fill="none" xmlns="http://www.w3.org/2000/svg">
<path id="Ellipse 7" d="M114.586 60.9256C117.561 61.0156 119.924 63.5057 119.568 66.4604C118.4 76.1381 114.888 85.4147 109.302 93.4688C102.688 103.003 93.4524 110.416 82.7123 114.808C71.9723 119.2 60.1891 120.384 48.7899 118.216C37.3908 116.048 26.8648 110.622 18.487 102.593C10.1092 94.5652 4.23898 84.2799 1.58749 72.9834C-1.064 61.6869 -0.383038 49.864 3.54789 38.9466C7.47882 28.0293 14.4911 18.4859 23.7352 11.4726C31.5441 5.54823 40.6627 1.64393 50.2819 0.0651152C53.2186 -0.416904 55.8072 1.83833 56.0238 4.80652V4.80652C56.2405 7.7747 54.0006 10.3266 51.0739 10.8663C43.5339 12.2567 36.3968 15.3946 30.2492 20.0586C22.6655 25.8122 16.9128 33.6413 13.688 42.5977C10.4631 51.554 9.90447 61.2533 12.0797 70.5207C14.2549 79.7881 19.0707 88.2259 25.9436 94.8121C32.8166 101.398 41.4519 105.85 50.8035 107.629C60.1551 109.407 69.8218 108.436 78.6327 104.833C87.4436 101.229 95.0205 95.1483 100.446 87.3265C104.844 80.9857 107.675 73.7215 108.743 66.1291C109.157 63.1821 111.612 60.8355 114.586 60.9256V60.9256Z" fill="var(--fill-0, white)" fill-opacity="0.2"/>
</svg>
