<svg preserveAspectRatio="none" width="100%" height="100%" overflow="visible" style="display: block;" viewBox="0 0 59.8287 59.8287" fill="none" xmlns="http://www.w3.org/2000/svg">
<path id="Ellipse 6" d="M55.2897 59.8287C57.8911 59.8287 60.0192 57.7166 59.8152 55.1232C59.3221 48.8555 57.8462 42.6942 55.4328 36.8677C52.4175 29.5882 47.9979 22.9739 42.4264 17.4023C36.8549 11.8308 30.2405 7.41126 22.961 4.39597C17.1345 1.98257 10.9732 0.506612 4.70556 0.0135459C2.11213 -0.190474 1.2842e-06 1.93764 1.39791e-06 4.53908V4.53908C1.51162e-06 7.14053 2.11341 9.22667 4.70358 9.46859C9.733 9.93833 14.6727 11.1597 19.3559 13.0995C25.4924 15.6414 31.0683 19.367 35.765 24.0638C40.4617 28.7605 44.1874 34.3363 46.7292 40.4729C48.669 45.156 49.8904 50.0958 50.3602 55.1252C50.6021 57.7153 52.6882 59.8287 55.2897 59.8287V59.8287Z" fill="var(--fill-0, #D9D9D9)"/>
</svg>
