<svg width="16" height="16" viewBox="0 0 16 16" fill="none" xmlns="http://www.w3.org/2000/svg">
<g transform="translate(2.667, 1.333)">
<path d="M1.81333 9.76C1.98307 9.71049 2.16553 9.73044 2.32056 9.81546C2.47559 9.90047 2.59049 10.0436 2.64 10.2133C2.68951 10.3831 2.66956 10.5655 2.58454 10.7206C2.49953 10.8756 2.35641 10.9905 2.18667 11.04C1.85333 11.1373 1.61333 11.24 1.45933 11.3333C1.618 11.4287 1.86867 11.5353 2.21667 11.6347C2.98667 11.8547 4.08867 12 5.33333 12C6.578 12 7.68 11.8547 8.45 11.6347C8.79867 11.5353 9.04867 11.4287 9.20733 11.3333C9.054 11.24 8.814 11.1373 8.48067 11.04C8.3136 10.9883 8.17353 10.873 8.09066 10.7191C8.00778 10.5651 7.98873 10.3847 8.03762 10.2168C8.0865 10.0488 8.19941 9.90687 8.352 9.82143C8.50458 9.73599 8.68463 9.71393 8.85333 9.76C9.29867 9.89 9.70667 10.0567 10.02 10.2707C10.31 10.47 10.6667 10.8173 10.6667 11.3333C10.6667 11.8553 10.3013 12.2053 10.0067 12.4047C9.688 12.6193 9.27133 12.7867 8.816 12.9167C7.89733 13.18 6.66667 13.3333 5.33333 13.3333C4 13.3333 2.76933 13.18 1.85067 12.9167C1.39533 12.7867 0.978667 12.6193 0.66 12.4047C0.365333 12.2047 0 11.8553 0 11.3333C0 10.8173 0.356667 10.47 0.646667 10.2707C0.96 10.0567 1.368 9.89 1.81333 9.76ZM5.33333 0C6.65942 0 7.93119 0.526784 8.86887 1.46447C9.80655 2.40215 10.3333 3.67392 10.3333 5C10.3333 6.712 9.4 8.104 8.43333 9.09333C8.04907 9.48262 7.63613 9.84252 7.198 10.17C6.802 10.4673 5.89667 11.0247 5.89667 11.0247C5.72496 11.1223 5.53084 11.1736 5.33333 11.1736C5.13583 11.1736 4.94171 11.1223 4.77 11.0247C4.3207 10.7641 3.88626 10.4788 3.46867 10.17C3.02989 9.84332 2.61689 9.48337 2.23333 9.09333C1.26667 8.104 0.333333 6.712 0.333333 5C0.333333 3.67392 0.860118 2.40215 1.7978 1.46447C2.73548 0.526784 4.00725 0 5.33333 0ZM5.33333 3.66667C4.97971 3.66667 4.64057 3.80714 4.39052 4.05719C4.14048 4.30724 4 4.64638 4 5C4 5.35362 4.14048 5.69276 4.39052 5.94281C4.64057 6.19286 4.97971 6.33333 5.33333 6.33333C5.68696 6.33333 6.02609 6.19286 6.27614 5.94281C6.52619 5.69276 6.66667 5.35362 6.66667 5C6.66667 4.64638 6.52619 4.30724 6.27614 4.05719C6.02609 3.80714 5.68696 3.66667 5.33333 3.66667Z" fill="white"/>
</g>
</svg>
