<svg preserveAspectRatio="none" width="100%" height="100%" overflow="visible" style="display: block;" viewBox="0 0 24 24" fill="none" xmlns="http://www.w3.org/2000/svg">
<g id="mage:next-fill">
<path id="Vector" d="M20.095 21C19.8961 21 19.7053 20.921 19.5647 20.7803C19.424 20.6397 19.345 20.4489 19.345 20.25V3.75C19.345 3.55109 19.424 3.36032 19.5647 3.21967C19.7053 3.07902 19.8961 3 20.095 3C20.2939 3 20.4847 3.07902 20.6253 3.21967C20.766 3.36032 20.845 3.55109 20.845 3.75V20.25C20.8463 20.3489 20.8279 20.447 20.7907 20.5386C20.7534 20.6302 20.6982 20.7134 20.6283 20.7833C20.5584 20.8532 20.4752 20.9084 20.3836 20.9457C20.292 20.9829 20.1939 21.0013 20.095 21ZM16.695 11.411C16.704 11.7595 16.6319 12.1053 16.4844 12.4211C16.3369 12.737 16.118 13.0142 15.845 13.231L6.735 20.321C6.409 20.568 6.022 20.721 5.615 20.761H5.385C5.03878 20.7697 4.69562 20.6942 4.385 20.541C4.01514 20.3605 3.70333 20.0799 3.485 19.731C3.2676 19.3833 3.15318 18.9811 3.155 18.571V5.421C3.15608 5.02663 3.26315 4.6398 3.465 4.301C3.67302 3.9642 3.96622 3.68825 4.315 3.501C4.66241 3.31321 5.05432 3.22332 5.44884 3.24093C5.84337 3.25855 6.2257 3.383 6.555 3.601L15.675 9.681C15.965 9.872 16.205 10.129 16.375 10.431C16.5544 10.7292 16.6639 11.0643 16.695 11.411Z" fill="var(--fill-0, white)"/>
</g>
</svg>
