<svg preserveAspectRatio="none" width="100%" height="100%" overflow="visible" style="display: block;" viewBox="0 0 24 24" fill="none" xmlns="http://www.w3.org/2000/svg">
<g id="mage:previous-fill">
<path id="Vector" d="M3.885 21.06C3.68689 21.0574 3.49763 20.9776 3.35753 20.8375C3.21744 20.6974 3.13759 20.5081 3.135 20.31V3.69C3.135 3.49109 3.21402 3.30032 3.35467 3.15967C3.49532 3.01902 3.68609 2.94 3.885 2.94C4.08391 2.94 4.27468 3.01902 4.41533 3.15967C4.55598 3.30032 4.635 3.49109 4.635 3.69V20.29C4.63767 20.3902 4.62025 20.4898 4.58375 20.5832C4.54726 20.6765 4.49244 20.7615 4.42253 20.8333C4.35262 20.9051 4.26903 20.9621 4.17671 21.0011C4.08439 21.04 3.9852 21.06 3.885 21.06ZM20.865 5.347V18.597C20.8557 18.9947 20.7456 19.3835 20.545 19.727C20.3495 20.0536 20.0725 20.3239 19.7412 20.5115C19.41 20.699 19.0357 20.7974 18.655 20.797H18.555C18.1584 20.7843 17.7736 20.6595 17.445 20.437L8.315 14.317C8.02223 14.1226 7.77906 13.8623 7.605 13.557C7.44014 13.2485 7.34779 12.9065 7.335 12.557C7.32242 12.2126 7.39093 11.8701 7.535 11.557C7.68107 11.2401 7.90044 10.9624 8.175 10.747L17.315 3.657C17.643 3.40737 18.0346 3.25491 18.445 3.217C18.8539 3.17479 19.2664 3.24798 19.6358 3.42826C20.0052 3.60855 20.3167 3.88871 20.535 4.237C20.739 4.572 20.853 4.955 20.865 5.347Z" fill="var(--fill-0, white)"/>
</g>
</svg>
