<svg preserveAspectRatio="none" width="100%" height="100%" overflow="visible" style="display: block;" viewBox="0 0 20 20" fill="none" xmlns="http://www.w3.org/2000/svg">
<g id="fluent:speaker-off-20-filled">
<path id="Vector" d="M2.854 2.146C2.80751 2.09951 2.75232 2.06264 2.69158 2.03748C2.63084 2.01232 2.56574 1.99937 2.5 1.99937C2.43426 1.99937 2.36916 2.01232 2.30842 2.03748C2.24768 2.06264 2.19249 2.09951 2.146 2.146C2.09951 2.19249 2.06264 2.24768 2.03748 2.30842C2.01232 2.36916 1.99937 2.43426 1.99937 2.5C1.99937 2.56574 2.01232 2.63084 2.03748 2.69158C2.06264 2.75232 2.09951 2.80751 2.146 2.854L5.293 6H3.5C3.10218 6 2.72064 6.15803 2.43934 6.43934C2.15804 6.72064 2 7.10218 2 7.5V12.5C2 12.8978 2.15804 13.2794 2.43934 13.5607C2.72064 13.842 3.10218 14 3.5 14H6.107C6.23305 13.9999 6.35448 14.0474 6.447 14.133L10.32 17.727C10.96 18.321 12 17.867 12 16.994V12.707L17.146 17.854C17.2399 17.9479 17.3672 18.0006 17.5 18.0006C17.6328 18.0006 17.7601 17.9479 17.854 17.854C17.9479 17.7601 18.0006 17.6328 18.0006 17.5C18.0006 17.3672 17.9479 17.2399 17.854 17.146L15.289 14.582L2.854 2.146ZM15.96 4.666C17.1499 5.99671 17.8607 7.68699 17.9796 9.46811C18.0984 11.2492 17.6185 13.019 16.616 14.496L15.895 13.773C16.7183 12.4848 17.0976 10.9625 16.9748 9.43861C16.852 7.91468 16.234 6.47279 15.215 5.333C15.1705 5.2842 15.1361 5.22707 15.1138 5.16489C15.0915 5.10272 15.0817 5.03675 15.085 4.97078C15.0884 4.90482 15.1048 4.84016 15.1332 4.78056C15.1617 4.72096 15.2017 4.66759 15.2509 4.62353C15.3001 4.57947 15.3576 4.5456 15.4199 4.52387C15.4823 4.50214 15.5484 4.49299 15.6143 4.49694C15.6802 4.50089 15.7447 4.51786 15.8041 4.54688C15.8634 4.5759 15.9164 4.61638 15.96 4.666ZM14.76 7.25C15.2361 8.07418 15.4902 9.00781 15.4973 9.95959C15.5045 10.9114 15.2646 11.8487 14.801 12.68L14.059 11.938C14.3733 11.2789 14.5226 10.5533 14.4938 9.82362C14.4651 9.09398 14.2592 8.3823 13.894 7.75C13.8607 7.69311 13.8389 7.6302 13.83 7.56486C13.821 7.49953 13.8251 7.43308 13.842 7.36933C13.8588 7.30558 13.8881 7.24579 13.9282 7.19341C13.9682 7.14103 14.0182 7.09709 14.0753 7.06412C14.1324 7.03115 14.1955 7.0098 14.2609 7.0013C14.3263 6.9928 14.3927 6.99732 14.4563 7.01459C14.52 7.03187 14.5796 7.06157 14.6317 7.10197C14.6838 7.14237 14.7274 7.19268 14.76 7.25ZM12 3.006V9.88L7.246 5.125L10.32 2.273C10.96 1.679 12 2.133 12 3.006Z" fill="var(--fill-0, white)"/>
</g>
</svg>
